<svg xmlns="http://www.w3.org/2000/svg" width="60" height="60" fill="none" viewBox="0 0 60 60"><rect width="60" height="60" fill="#f3f4f6" rx="30"/><path stroke="#1c2a3a" stroke-linecap="round" stroke-linejoin="round" stroke-miterlimit="10" stroke-width="1.5" d="M26 20v3m8-3v3m-12.5 4.09h17m-1.29 6.68-3.54 3.54c-.14.14-.27.4-.3.59l-.19 1.35c-.07.49.27.83.76.76l1.35-.19c.19-.03.46-.16.59-.3l3.54-3.54c.61-.61.9-1.32 0-2.22-.89-.89-1.6-.6-2.21.01"/><path stroke="#1c2a3a" stroke-linecap="round" stroke-linejoin="round" stroke-miterlimit="10" stroke-width="1.5" d="M36.7 34.28c.3 1.08 1.14 1.92 2.22 2.22M30 40h-4c-3.5 0-5-2-5-5v-8.5c0-3 1.5-5 5-5h8c3.5 0 5 2 5 5V30"/><path stroke="#1c2a3a" stroke-linecap="round" stroke-linejoin="round" stroke-width="2" d="M29.996 31.7h.009m-3.711 0h.01m-.01 3h.01"/></svg>