<svg xmlns="http://www.w3.org/2000/svg" width="60" height="60" fill="none" viewBox="0 0 60 60"><rect width="60" height="60" fill="#fde8e8" rx="30"/><path stroke="#771d1d" stroke-linecap="round" stroke-linejoin="round" stroke-miterlimit="10" stroke-width="1.5" d="M26 20v3M34 20v3M21.5 27.09h17M36 41a4 4 0 1 0 0-8 4 4 0 0 0 0 8M37.07 38.11 34.95 36M37.05 36.02l-2.12 2.12"/><path stroke="#771d1d" stroke-linecap="round" stroke-linejoin="round" stroke-miterlimit="10" stroke-width="1.5" d="M39 26.5v7.86c-.73-.83-1.8-1.36-3-1.36-2.21 0-4 1.79-4 4 0 .75.21 1.46.58 2.06.21.36.48.68.79.94H26c-3.5 0-5-2-5-5v-8.5c0-3 1.5-5 5-5h8c3.5 0 5 2 5 5"/><path stroke="#771d1d" stroke-linecap="round" stroke-linejoin="round" stroke-width="2" d="M29.996 31.7h.009M26.294 31.7h.01M26.294 34.7h.01"/></svg>