<svg xmlns="http://www.w3.org/2000/svg" width="62" height="62" fill="none" viewBox="0 0 62 62"><g clip-path="url(#a)"><rect width="62" height="62" fill="#93c19e" rx="8"/><path fill="#fff" fill-opacity=".2" d="M33.667 0a34 34 0 0 1-34 34V0z"/><g stroke="#fff" stroke-linecap="round" stroke-linejoin="round" stroke-width="1.5" clip-path="url(#b)"><path d="M13.974 32.126h10.263l2.997-7.873 3.865 13.425 4.316-9.328 2.732 3.92h9.923"/><path d="M46.239 28.926c.776-1.579 1.063-3.029 1.063-4.317 0-2.779-2.007-8.528-8.527-8.528s-8.158 5.588-8.158 5.588-1.638-5.583-8.158-5.583-8.528 5.753-8.528 8.528c0 1.245.268 2.642.987 4.16m5.742 7.167c3.907 4.137 7.907 8.076 9.957 9.978 2.047-1.9 6.046-5.835 9.946-9.967"/></g></g><defs><clipPath id="a"><rect width="62" height="62" fill="#fff" rx="8"/></clipPath><clipPath id="b"><path fill="#fff" d="M13.334 15.484h35.332v31.033H13.334z"/></clipPath></defs></svg>