<svg xmlns="http://www.w3.org/2000/svg" width="62" height="62" fill="none" viewBox="0 0 62 62"><g clip-path="url(#a)"><rect width="62" height="62" fill="#dc9497" rx="8"/><g stroke="#fff" stroke-linecap="round" stroke-linejoin="round" stroke-width="1.5" clip-path="url(#b)"><path d="M37.646 14.284c-1.735 0-3.932 1.193-6.647 1.193s-4.911-1.193-6.646-1.193c-2.993 0-7.639 2.359-6.57 8.485.798 4.569 4.48 6.98 4.48 10.603 0 3.78-1.281 3.974-1.421 8.538-.147 4.73 1.966 5.804 2.71 5.804.745 0 2.75.305 3.687-5.29 1.069-6.4 3.76-6.117 3.76-6.117s2.692-.28 3.762 6.118c.936 5.594 2.943 5.29 3.686 5.29s2.857-1.075 2.71-5.805c-.14-4.564-1.42-4.757-1.42-8.538 0-3.623 3.682-6.034 4.48-10.603 1.069-6.126-3.58-8.485-6.571-8.485"/><path d="M25.039 27.607c-.228-.381-.46-.751-.687-1.112-.896-1.428-1.669-2.66-1.926-4.13-.223-1.276-.067-2.244.464-2.875"/></g><path fill="#fff" fill-opacity=".2" d="M34.334 0a34 34 0 0 1-34 34V0z"/></g><defs><clipPath id="a"><rect width="62" height="62" fill="#fff" rx="8"/></clipPath><clipPath id="b"><path fill="#fff" d="M17.07 13.727H44.93v34.545H17.07z"/></clipPath></defs></svg>