<svg xmlns="http://www.w3.org/2000/svg" width="56" height="56" fill="none" viewBox="0 0 56 56"><rect width="56" height="56" fill="#f3f4f6" rx="28"/><path fill="#1c2a3a" d="M24.182 15.273a6.05 6.05 0 0 0-6.046 6.045c0 3.271 2.558 5.918 5.893 6.033.102-.013.204-.013.28 0h.089a6.03 6.03 0 0 0 5.83-6.033 6.05 6.05 0 0 0-6.046-6.045M30.647 30.736c-3.55-2.367-9.342-2.367-12.918 0-1.616 1.082-2.507 2.546-2.507 4.111 0 1.566.89 3.017 2.494 4.085 1.782 1.197 4.124 1.795 6.466 1.795s4.683-.598 6.465-1.794c1.604-1.082 2.495-2.533 2.495-4.111-.013-1.566-.891-3.017-2.495-4.086M38.169 22.07c.203 2.468-1.553 4.632-3.984 4.925h-.064c-.076 0-.152 0-.216.025-1.235.064-2.367-.33-3.22-1.056 1.311-1.171 2.062-2.928 1.91-4.837a5.9 5.9 0 0 0-.98-2.774 4.572 4.572 0 0 1 6.555 3.716"/><path fill="#1c2a3a" d="M40.715 33.842c-.102 1.234-.891 2.303-2.215 3.029-1.273.7-2.876 1.03-4.467.992.916-.827 1.45-1.858 1.552-2.952.128-1.578-.623-3.093-2.125-4.302-.853-.675-1.846-1.21-2.927-1.604 2.812-.814 6.35-.267 8.527 1.49 1.17.941 1.77 2.125 1.654 3.347"/></svg>