<svg xmlns="http://www.w3.org/2000/svg" width="56" height="56" fill="none" viewBox="0 0 56 56"><rect width="56" height="56" fill="#f3f4f6" rx="28"/><path fill="#1c2a3a" d="M29.514 20.364H21.37c-.331 0-.65.012-.955.05-3.423.293-5.142 2.317-5.142 6.046v5.09c0 5.092 2.037 6.097 6.097 6.097h.509c.28 0 .649.191.814.407l1.528 2.037c.674.904 1.769.904 2.443 0l1.528-2.037c.19-.254.496-.407.814-.407h.51c3.728 0 5.752-1.705 6.045-5.142.038-.305.05-.623.05-.954V26.46c0-4.06-2.036-6.096-6.096-6.096M21 30.545a1.27 1.27 0 0 1-1.273-1.272c0-.7.573-1.273 1.273-1.273s1.273.573 1.273 1.273S21.7 30.545 21 30.545m4.442 0a1.27 1.27 0 0 1-1.273-1.272c0-.7.573-1.273 1.273-1.273s1.272.573 1.272 1.273-.56 1.272-1.272 1.272m4.454 0a1.27 1.27 0 0 1-1.273-1.272c0-.7.573-1.273 1.273-1.273s1.273.573 1.273 1.273-.573 1.272-1.273 1.272"/><path fill="#1c2a3a" d="M40.702 21.37v5.09c0 2.545-.79 4.276-2.368 5.23-.381.23-.827-.076-.827-.52l.013-4.71c0-5.09-2.915-8.006-8.006-8.006l-7.75.013c-.446 0-.751-.445-.522-.827.954-1.578 2.685-2.367 5.218-2.367h8.145c4.06 0 6.097 2.036 6.097 6.096"/></svg>