<svg xmlns="http://www.w3.org/2000/svg" width="56" height="56" fill="none" viewBox="0 0 56 56"><rect width="56" height="56" fill="#f3f4f6" rx="28"/><path fill="#1c2a3a" d="M28 31.818c4.744 0 8.59-3.704 8.59-8.273s-3.846-8.272-8.59-8.272c-4.745 0-8.591 3.704-8.591 8.272 0 4.57 3.846 8.273 8.59 8.273M32.823 32.595c.42-.217.904.101.904.572v6.173c0 1.145-.802 1.705-1.794 1.235l-3.411-1.617a1.48 1.48 0 0 0-1.044 0l-3.411 1.617c-.993.458-1.794-.102-1.794-1.248l.025-6.16c0-.47.496-.776.904-.572A10.6 10.6 0 0 0 28 33.727c1.73 0 3.372-.407 4.823-1.132"/></svg>