<svg xmlns="http://www.w3.org/2000/svg" width="56" height="56" fill="none" viewBox="0 0 56 56"><rect width="55.915" height="55.78" fill="#f3f4f6" rx="27.89"/><path fill="#1c2a3a" fill-rule="evenodd" d="M27.89 17.818c-.614.032-1.224.513-1.694 1.442l-1.787 3.574c-.241.494-.888.976-1.433 1.065l-3.232.532c-2.066.355-2.547 1.85-1.064 3.334l2.522 2.522c.418.418.659 1.242.545 1.85l-.723 3.118c-.57 2.46.748 3.41 2.916 2.13l3.029-1.8c.252-.153.584-.235.921-.246z" clip-rule="evenodd"/><path fill="#1c2a3a" fill-rule="evenodd" d="M27.89 35.34c.39-.012.79.07 1.082.247l3.029 1.8c2.167 1.292 3.486.33 2.915-2.13l-.722-3.118c-.14-.596.101-1.42.52-1.838l2.522-2.522c1.483-1.496 1-2.991-1.065-3.333l-3.232-.533c-.545-.101-1.192-.57-1.432-1.064l-1.788-3.575c-.505-1.004-1.17-1.488-1.829-1.454z" clip-rule="evenodd"/></svg>