<svg xmlns="http://www.w3.org/2000/svg" width="34" height="34" fill="none" viewBox="0 0 34 34"><path fill="#1c2a3a" d="M22.667 2.833H11.334q-8.5 0-8.5 8.5V29.75c0 .78.637 1.417 1.416 1.417h18.417q8.5 0 8.5-8.5V11.333q0-8.5-8.5-8.5"/><path fill="#fff" d="M23.446 10.568c-1.786-1.785-3.514-1.827-5.341 0l-1.12 1.12c-.099.099-.127.24-.099.368a7.42 7.42 0 0 0 5.072 5.072c.028.014.07.014.113.014.1 0 .199-.043.27-.114l1.104-1.105c.907-.906 1.346-1.77 1.346-2.649 0-.92-.439-1.799-1.346-2.706m-3.13 7.382a7 7 0 0 1-.765-.412 5 5 0 0 1-.581-.382 5 5 0 0 1-.524-.397.6.6 0 0 1-.156-.142 10 10 0 0 1-.95-.949c-.027-.014-.07-.085-.127-.17a7 7 0 0 1-.382-.495 4.5 4.5 0 0 1-.354-.539 8 8 0 0 1-.397-.75 16 16 0 0 1-.326-.794l-5.34 5.34c-.355.355-.68 1.007-.752 1.488l-.41 2.947c-.1.623.085 1.204.467 1.6.326.327.78.497 1.275.497.114 0 .213-.015.326-.029l2.947-.41c.481-.071 1.133-.397 1.487-.751l5.341-5.341c-.255-.1-.51-.198-.78-.312"/></svg>