<svg xmlns="http://www.w3.org/2000/svg" width="27" height="26" fill="none" viewBox="0 0 27 26"><rect width="27" height="25.35" fill="#1f2a37" fill-opacity=".2" rx="12.675"/><path stroke="#fff" d="M16.83 6.5c2.024 0 3.67 1.649 3.67 3.692 0 .838-.133 1.612-.365 2.33h-.001l-.001.002c-.557 1.762-1.699 3.187-2.938 4.251-1.241 1.067-2.551 1.749-3.391 2.035h-.005a1 1 0 0 1-.299.04 1 1 0 0 1-.299-.04h-.005l-.336-.126c-.83-.337-1.969-.975-3.055-1.909-1.24-1.064-2.381-2.489-2.938-4.25l-.002-.004-.082-.272a7.5 7.5 0 0 1-.283-2.057C6.5 8.15 8.146 6.5 10.17 6.5c1.192 0 2.262.58 2.93 1.472l.4.535.4-.535A3.66 3.66 0 0 1 16.83 6.5Z"/></svg>