<svg xmlns="http://www.w3.org/2000/svg" width="62" height="62" fill="none" viewBox="0 0 62 62"><g clip-path="url(#a)"><rect width="62" height="62" fill="#352261" rx="8"/><g clip-path="url(#b)"><path stroke="#fff" stroke-linecap="round" stroke-linejoin="round" stroke-width="1.5" d="M20.663 44.962c-.786.223-1.611.108-2.122-.322-.865-.729-1.678-1.864-2.162-3.557-.664-2.318.163-6.967 4.043-8.078 2.92-.835 4.112 1.181 7.048.341s4.52-2.74 3.99-4.58c-.936-3.271-6.326-4.13-8.795-7.806-.651-.973-.06-1.655 1.383-2.072.98-.28 1.967-.733 2.702-.07.735.665 1.544 1.425 2.848 2.245 0 0 1.849-3.062 4.783-3.902s8.935.299 11.096 7.855c2.16 7.555-6.257 13.423-11.29 14.864-8.542 2.443-9.969-2.547-12.264-1.89-1.777.508-1.13 2.594.247 4.167.806.922.127 2.336-1.363 2.76z"/></g><path fill="#fff" fill-opacity=".2" d="M33.667 0a34 34 0 0 1-34 34V0z"/></g><defs><clipPath id="a"><rect width="62" height="62" fill="#fff" rx="8"/></clipPath><clipPath id="b"><path fill="#fff" d="M15.61 16.365h30.78v29.27H15.61z"/></clipPath></defs></svg>