<svg xmlns="http://www.w3.org/2000/svg" width="62" height="62" fill="none" viewBox="0 0 62 62"><g clip-path="url(#a)"><rect width="62" height="62" fill="#aca1cd" rx="8"/><path fill="#fff" fill-opacity=".2" d="M34 0A34 34 0 0 1 0 34V0z"/><g stroke="#fff" stroke-linecap="round" stroke-linejoin="round" stroke-width="1.5" clip-path="url(#b)"><path d="M22.295 31.244c-2.428-3.24-4.591-6.347-4.591-10.744 0-3.01 2.533-4.064 4.133-4.429M24.368 15.88c0 .626-.56 1.132-1.253 1.132-.606 0-1.11-.388-1.228-.904a1 1 0 0 1-.025-.227c0-.626.56-1.132 1.253-1.132.691 0 1.253.506 1.253 1.132M33.501 15.88c0 .626.56 1.132 1.252 1.132.606 0 1.111-.388 1.228-.904q.025-.111.025-.227c0-.626-.56-1.132-1.253-1.132s-1.252.506-1.252 1.132M35.574 31.245c2.427-3.24 4.591-6.347 4.591-10.745 0-2.998-2.512-4.055-4.113-4.425"/><path d="M17.704 20.5c0-3.01 2.533-4.064 4.133-4.429M35.594 31.26a1.334 1.334 0 0 0-1.876.191 39 39 0 0 1-4.783 4.903 39 39 0 0 1-4.785-4.903 1.33 1.33 0 0 0-1.917-.246 1.334 1.334 0 0 0-.152 1.926c2.94 3.621 5.919 5.909 6.044 6.004l.017.01q.075.056.158.101l.012.008q.181.095.381.132l.04.006q.096.016.196.016h.005q.1 0 .197-.016l.039-.007q.2-.036.381-.131l.013-.008q.082-.045.158-.1l.016-.011a39.8 39.8 0 0 0 6.045-6.004 1.334 1.334 0 0 0-.19-1.87M41.08 41.245s-.769 6.003-5.91 6.003c-4.72 0-5.988-3.552-6.193-7.833M44.298 38.758c0 1.356-1.144 2.456-2.565 2.456-1.42 0-2.56-1.096-2.56-2.456 0-1.361 1.148-2.457 2.564-2.457s2.56 1.1 2.56 2.456"/><path d="M42.07 38.758a.337.337 0 1 1-.337-.324.33.33 0 0 1 .337.324"/></g></g><defs><clipPath id="a"><rect width="62" height="62" fill="#fff" rx="8"/></clipPath><clipPath id="b"><path fill="#fff" d="M17.179 14.225h27.643v33.55H17.179z"/></clipPath></defs></svg>