<svg xmlns="http://www.w3.org/2000/svg" width="10.067" height="10" fill="none" viewBox="0 0 10.067 8.334"><path d="M5.033-.833c-.316-.001-.633.238-.875.716l-.887 1.774c-.12.245-.44.485-.71.53L.955 2.45c-1.026.176-1.263.92-.527 1.656L1.68 5.358c.207.208.326.616.27.918l-.358 1.549c-.283 1.22.371 1.692 1.447 1.056l1.504-.894c.27-.164.724-.164.994 0l1.504.894c1.076.642 1.73.165 1.447-1.056l-.36-1.549c-.068-.296.051-.704.259-.912l1.252-1.252c.736-.743.498-1.484-.528-1.654l-1.605-.266c-.27-.05-.592-.282-.711-.527L5.908-.111c-.242-.481-.559-.722-.875-.722m0 1.38c.23.001.458.175.633.524l.643 1.283a.8.8 0 0 0 .515.383l1.16.191c.743.123.916.662.383 1.2l-.906.906a.79.79 0 0 0-.188.66l.26 1.121c.205.884-.268 1.228-1.047.764l-1.088-.647a.7.7 0 0 0-.365-.088z" style="fill:#feb052;fill-opacity:1;stroke:none"/></svg>