<svg xmlns="http://www.w3.org/2000/svg" width="10.067" height="10" fill="none" viewBox="0 0 10.067 8.334"><path d="M5.033-.833c-.316-.001-.632.238-.875.716l-.886 1.774c-.12.245-.44.485-.711.53L.955 2.45c-1.025.176-1.263.92-.527 1.656L1.68 5.358c.208.208.326.616.27.918l-.358 1.549c-.283 1.22.371 1.692 1.447 1.056l1.504-.894c.27-.164.724-.164.994 0l1.504.894c1.076.642 1.73.165 1.447-1.056L8.13 6.276c-.07-.296.05-.704.258-.912l1.252-1.252c.736-.743.498-1.484-.527-1.654l-1.606-.266c-.27-.05-.591-.282-.71-.527L5.907-.111c-.242-.481-.558-.722-.875-.722m0 1.38c.23.001.458.175.633.524l.643 1.283c.086.178.32.347.515.383l1.16.191c.743.123.916.662.383 1.2l-.906.906a.79.79 0 0 0-.187.66l.26 1.121c.204.884-.269 1.228-1.047.764l-1.088-.647a.78.78 0 0 0-.721 0L3.59 7.58c-.779.46-1.254.12-1.049-.764l.26-1.121c.041-.219-.045-.516-.195-.666l-.907-.906c-.532-.533-.36-1.07.383-1.198l1.162-.191a.79.79 0 0 0 .514-.383l.643-1.285c.175-.346.404-.518.632-.518" style="fill:#feb052;fill-opacity:1;stroke:none"/></svg>