<svg xmlns="http://www.w3.org/2000/svg" width="16" height="16" fill="none" viewBox="0 0 16 16"><path fill="#9ca3af" d="M14.667 14.167H1.334c-.274 0-.5.226-.5.5 0 .273.226.5.5.5h13.333c.273 0 .5-.227.5-.5 0-.274-.227-.5-.5-.5"/><path fill="#9ca3af" d="M11.333 1.333H4.667C2.667 1.333 2 2.527 2 4v10.667h4v-4.04c0-.347.28-.627.627-.627H9.38c.34 0 .627.28.627.627v4.04h4V4c-.007-1.473-.674-2.667-2.674-2.667M9.667 6.167H8.5v1.166c0 .274-.227.5-.5.5a.504.504 0 0 1-.5-.5V6.167H6.333a.504.504 0 0 1-.5-.5c0-.274.227-.5.5-.5H7.5V4c0-.273.227-.5.5-.5s.5.227.5.5v1.167h1.167c.273 0 .5.226.5.5 0 .273-.227.5-.5.5"/></svg>