<svg xmlns="http://www.w3.org/2000/svg" width="62" height="62" fill="none" viewBox="0 0 62 62"><g clip-path="url(#a)"><rect width="62" height="62" fill="#deb6b5" rx="8"/><path stroke="#fff" stroke-linecap="round" stroke-linejoin="round" stroke-width="1.5" d="M34.896 24.121v-4.785H27.11v4.785a11.42 11.42 0 1 0 7.79 0z"/><path stroke="#fff" stroke-linecap="round" stroke-linejoin="round" stroke-width="1.5" d="m41.992 37.113-1.828-1.478a2.91 2.91 0 0 0-3.658 0 2.914 2.914 0 0 1-3.659 0 2.91 2.91 0 0 0-3.658 0 2.91 2.91 0 0 1-3.657 0 2.91 2.91 0 0 0-3.657 0l-1.832 1.477M35.914 15.722h-9.828v3.614h9.828z"/><path fill="#fff" fill-opacity=".2" d="M34 0A34 34 0 0 1 0 34V0z"/></g><defs><clipPath id="a"><rect width="62" height="62" fill="#fff" rx="8"/></clipPath></defs></svg>