<svg xmlns="http://www.w3.org/2000/svg" width="66" height="66" fill="none" viewBox="0 0 66 66"><path fill="#1c2a3a" d="M38.82 52.74v6.496H26.753V27.192h5.306V20.43h-12.04v18.799H6.754V27.192h6.508V20.43H6.269A6.28 6.28 0 0 0 0 26.695V39.74a6.273 6.273 0 0 0 6.27 6.266h13.747v13.739A6.27 6.27 0 0 0 26.282 66h13.02a6.28 6.28 0 0 0 6.27-6.266v-6.995z"/><path fill="#1c2a3a" d="M59.73 20H45.986V6.269A6.276 6.276 0 0 0 39.715 0h-13.02a6.28 6.28 0 0 0-6.266 6.269v6.989h6.735v-6.52h12.058v32.067h-5.29v6.766h12.053V26.75h13.264v12.055h-6.513v6.766h6.995A6.28 6.28 0 0 0 66 39.303V26.268A6.276 6.276 0 0 0 59.73 20"/></svg>