<svg xmlns="http://www.w3.org/2000/svg" width="62" height="62" fill="none" viewBox="0 0 62 62"><g clip-path="url(#a)"><rect width="62" height="62" fill="#4d9b91" rx="8"/><g stroke="#fff" stroke-linecap="round" stroke-linejoin="round" stroke-width="1.5" clip-path="url(#b)"><path d="m20.209 19.484.195-1.172a5.21 5.21 0 0 1 5.06-3.983 3.51 3.51 0 0 1 3.51 3.51v25.71c0 2.161-2.172 4.123-4.331 4.123-3.48 0-6.012-2.308-6.012-5.953-1.836-1.407-3.072-3.775-2.492-6.014l.264-1.012-.129-.101c-3.008-2.35-2.878-6.098.258-8.268"/><path d="M24.352 21.497c-1.672-2.288-4.268-2.73-6.904-.906-1.33 1.074-2.295 3.185-.916 5.73 0 0 3.085-1.548 5.178 1.863M18.629 41.72s.4-1.967 3.327-2.547"/><path d="M23.435 40.72c.327.114-2.548-1.05-1.224-3.545m6.761-5.023s-2.2-1.147-4.11.726m-8.459 1.815s.862-2 3.913-1.194m21.526-14.144-.247-1.043a5.21 5.21 0 0 0-5.06-3.983 3.51 3.51 0 0 0-3.51 3.51v25.71a3.91 3.91 0 0 0 3.912 3.912c4.389 0 5.85-1.97 6.853-4.9 2.256-1.272 2.651-3.774 2.068-6.013l-.262-1.012.129-.102a5.663 5.663 0 0 0-.259-9.116"/><path d="M38.084 21.788c1.68-2.945 4.296-2.845 6.467-1.2 1.633 1.273 1.925 4.25.917 5.73 0 0-4.512-.906-6.897 1.45"/><path d="M38.806 29.745s.717-2.517-2.029-2.767m7.015 15.584s-.4-1.966-3.326-2.546"/><path d="M38.99 41.563c-.326.113 2.549-1.051 1.225-3.545m5.383-2.481a5.5 5.5 0 0 0-3.914-1.195m-8.657 1.195c.906-.03 1.8.213 2.567.696"/></g><path fill="#fff" fill-opacity=".2" d="M33.334 0a34 34 0 0 1-34 34V0z"/></g><defs><clipPath id="a"><rect width="62" height="62" fill="#fff" rx="8"/></clipPath><clipPath id="b"><path fill="#fff" d="M13.473 13.705h35.053v34.59H13.473z"/></clipPath></defs></svg>