<svg xmlns="http://www.w3.org/2000/svg" width="62" height="62" fill="none" viewBox="0 0 62 62"><g clip-path="url(#a)"><rect width="62" height="62" fill="#f5ad7e" rx="8"/><g stroke="#fff" stroke-linecap="round" stroke-linejoin="round" stroke-width="1.5" clip-path="url(#b)"><path d="M34.702 36.867a7 7 0 0 0 2.7 5.384c.865.675 2 1.26 3.482 1.57 5.267 1.117 7.927.87 7.921-4.805 0-3.904-.786-17.973-9.908-19.194-3.792-.509-4.515 2.565-4.476 4.311zM27.299 36.867a7 7 0 0 1-2.696 5.384c-.866.675-2 1.26-3.482 1.57-5.268 1.117-7.928.87-7.921-4.805 0-3.904.786-17.973 9.908-19.194 3.792-.509 4.515 2.565 4.476 4.311zM32.097 17.651v6.67c0 1.134.674 2.196 1.8 2.841l.427.244M29.904 17.651v6.67c0 1.134-.674 2.196-1.8 2.841l-.427.244M31 28.318c-1.241 1.114-3.355 1.73-3.355 1.73M31 28.318c1.24 1.114 3.355 1.73 3.355 1.73"/></g><path fill="#fff" fill-opacity=".2" d="M34 0A34 34 0 0 1 0 34V0z"/></g><defs><clipPath id="a"><rect width="62" height="62" fill="#fff" rx="8"/></clipPath><clipPath id="b"><path fill="#fff" d="M12.7 17.155h36.6v27.69H12.7z"/></clipPath></defs></svg>