<svg xmlns="http://www.w3.org/2000/svg" width="16" height="16" fill="none" viewBox="0 0 16 16"><path fill="#9ca3af" d="M5.92 3.067C5.387.76 1.914.753 1.38 3.067c-.313 1.353.547 2.5 1.294 3.213a1.43 1.43 0 0 0 1.953 0c.747-.713 1.6-1.86 1.293-3.213M3.674 4.133a.67.67 0 0 1-.667-.666c0-.367.293-.667.66-.667h.007c.373 0 .666.3.666.667a.664.664 0 0 1-.666.666m10.933 6.934c-.534-2.307-4.02-2.314-4.56 0-.314 1.353.546 2.5 1.3 3.213a1.44 1.44 0 0 0 1.96 0c.753-.713 1.613-1.86 1.3-3.213m-2.254 1.066a.67.67 0 0 1-.666-.666c0-.367.293-.667.66-.667h.006c.367 0 .667.3.667.667 0 .366-.3.666-.667.666M8 13.167H6.213A1.81 1.81 0 0 1 4.5 11.98a1.82 1.82 0 0 1 .507-2.027l5.327-4.66c.32-.28.326-.66.233-.92a.82.82 0 0 0-.78-.54H8a.504.504 0 0 1-.5-.5c0-.273.227-.5.5-.5h1.787A1.81 1.81 0 0 1 11.5 4.02c.274.72.073 1.513-.507 2.027l-5.326 4.66a.83.83 0 0 0-.234.92c.1.26.354.54.78.54H8c.273 0 .5.226.5.5 0 .273-.227.5-.5.5"/></svg>