<svg xmlns="http://www.w3.org/2000/svg" width="11" height="10" fill="none" viewBox="0 0 11 10"><path fill="#feb052" d="m5.908.723.887 1.774c.12.246.44.478.711.529l1.605.264c1.026.17 1.265.912.528 1.655L8.388 6.197a1.09 1.09 0 0 0-.258.913l.359 1.547c.283 1.221-.371 1.7-1.447 1.058L5.537 8.82c-.27-.164-.724-.164-.994 0l-1.504.894c-1.076.635-1.73.163-1.447-1.058L1.95 7.11c.057-.302-.063-.711-.27-.92L.428 4.94C-.31 4.202-.07 3.46.956 3.284l1.605-.264a1.1 1.1 0 0 0 .71-.529L4.16.717C4.644-.24 5.425-.24 5.91.723"/></svg>