<svg xmlns="http://www.w3.org/2000/svg" width="62" height="62" fill="none" viewBox="0 0 62 62"><g clip-path="url(#a)"><rect width="62" height="62" fill="#89ccdb" rx="8"/><g stroke="#fff" stroke-linecap="round" stroke-linejoin="round" stroke-width="1.5" clip-path="url(#b)"><path d="M33.389 18.548 17.07 34.866l10.12 10.12L43.51 28.668z"/><path d="m24.485 42.276-10.527 5.718 5.717-10.527M31.937 17.092l12.944 12.944M41.006 14.006l7.036 7.036M46.626 19.626l-6.077 6.077M36.345 21.5l6.078-6.078M29.448 22.629l3.416 3.414M25.191 26.886l3.415 3.415M20.934 31.144l3.415 3.414"/></g><path fill="#fff" fill-opacity=".2" d="M34 0A34 34 0 0 1 0 34V0z"/></g><defs><clipPath id="a"><rect width="62" height="62" fill="#fff" rx="8"/></clipPath><clipPath id="b"><path fill="#fff" d="M13.347 13.395h35.307v35.21H13.347z"/></clipPath></defs></svg>